<?xml version="1.0" encoding="UTF-8"?><svg id="Layer_1" xmlns="http://www.w3.org/2000/svg" viewBox="0 0 50 59.73"><path d="M49.77,42.83h-23v-2.32c1.07-.08,2.33-.27,3.77-.58,1.45-.31,2.17-.69,2.17-1.15,0-.16-.01-.34-.04-.54-.03-.2-.11-.47-.25-.8l-3.6-8.75h-14.58c-.34.81-.71,1.77-1.11,2.86-.4,1.09-.75,2.06-1.05,2.92-.37,1.11-.6,1.91-.67,2.41-.07.5-.1.84-.1,1.04,0,.64.48,1.18,1.44,1.62s2.56.77,4.8.97v2.32H.21v-2.32c.65-.04,1.39-.14,2.22-.31.82-.17,1.47-.4,1.95-.7.81-.48,1.5-1.06,2.07-1.76.57-.69,1.04-1.52,1.41-2.47,2.3-5.57,4.61-11.16,6.92-16.76,2.31-5.59,4.87-11.77,7.66-18.51h5.95c3.89,9.56,6.93,17.12,9.14,22.68,2.2,5.56,4.08,10.16,5.62,13.81.26.6.58,1.14.98,1.62.4.49.96.95,1.7,1.38.56.32,1.2.56,1.93.71.73.16,1.4.26,1.99.3v2.32ZM27.57,25.74l-6.11-15.26-6.02,15.26h12.13Z" style="fill:#0573bb;"/><path d="M0,52.43c0-.65.09-1.22.27-1.73.18-.51.42-.93.73-1.28.31-.34.66-.6,1.06-.77.4-.17.81-.26,1.24-.26.2,0,.39.02.57.05.18.04.35.08.5.15.16.06.31.13.44.21.14.08.26.16.38.24h.02c0-.1,0-.25-.01-.43,0-.19,0-.39,0-.61v-3.08h1.81v8.86c0,.49,0,.91.02,1.26.01.35.02.66.03.94h-1.64l-.08-.79h-.03c-.11.13-.24.25-.39.37-.15.12-.32.23-.5.32-.18.09-.38.16-.6.21-.22.05-.45.08-.71.08-.4,0-.79-.07-1.16-.21-.37-.14-.7-.36-.99-.66-.29-.3-.53-.69-.7-1.17-.18-.48-.26-1.05-.26-1.7ZM3.57,54.73c.18,0,.35-.02.51-.07.16-.05.31-.11.45-.18.14-.08.27-.16.38-.25.11-.09.2-.18.28-.27v-3.51c-.21-.17-.45-.32-.72-.43-.26-.11-.55-.17-.84-.17-.19,0-.39.04-.59.11-.21.08-.39.21-.57.39-.17.18-.31.44-.43.76-.11.33-.17.74-.17,1.25,0,.74.14,1.32.43,1.74.29.42.71.63,1.26.63Z" style="fill:#2072b9;"/><path d="M12.92,54.72c.35,0,.72-.04,1.1-.11.38-.07.77-.17,1.16-.31v1.44c-.23.1-.59.2-1.08.29-.48.09-.99.14-1.51.14s-1.02-.07-1.49-.2c-.47-.13-.88-.35-1.23-.65-.35-.3-.63-.69-.84-1.17-.21-.48-.31-1.06-.31-1.74s.1-1.26.29-1.76c.19-.5.45-.92.78-1.25.33-.33.7-.58,1.12-.74.42-.17.85-.25,1.3-.25s.9.07,1.3.21c.39.14.74.37,1.02.67.29.31.51.7.67,1.18.16.48.24,1.05.24,1.71,0,.25-.01.47-.02.65h-4.85c.03.34.1.63.23.87.13.24.29.44.5.59.21.15.45.26.72.33.28.07.57.1.89.1ZM12.19,49.81c-.23,0-.43.04-.61.13-.18.08-.33.2-.46.34-.13.15-.23.31-.31.51-.08.19-.13.4-.15.62h2.91c0-.22-.03-.43-.09-.62-.06-.19-.15-.36-.26-.51-.11-.15-.26-.26-.43-.34-.17-.08-.37-.13-.6-.13Z" style="fill:#2072b9;"/><path d="M20.41,53.84c0-.16-.04-.29-.13-.39-.09-.1-.21-.19-.36-.26-.15-.07-.32-.13-.51-.18-.19-.05-.39-.1-.6-.15-.26-.07-.52-.15-.76-.25-.24-.09-.46-.22-.65-.37-.19-.15-.33-.34-.44-.58-.11-.23-.16-.52-.16-.85,0-.41.07-.77.22-1.07.15-.3.35-.55.6-.75.25-.2.54-.35.88-.44.33-.1.69-.15,1.06-.15.45,0,.88.04,1.28.11.4.07.76.17,1.08.29v1.47c-.17-.06-.35-.11-.53-.16-.19-.05-.37-.09-.57-.13-.19-.04-.38-.06-.57-.09-.19-.02-.37-.03-.53-.03-.21,0-.39.02-.54.06-.15.04-.27.1-.36.16-.09.07-.16.15-.2.24-.04.09-.06.18-.06.28,0,.17.04.31.13.41.09.11.21.19.37.26.16.07.32.12.5.16.17.04.34.09.5.13.25.06.51.13.76.22.25.09.48.21.69.36.2.16.37.36.5.6.13.25.19.56.19.94,0,.42-.08.78-.24,1.09-.16.31-.38.57-.66.78-.28.21-.62.36-1.02.46-.39.1-.83.15-1.3.15s-.89-.04-1.26-.11c-.37-.07-.68-.17-.93-.28v-1.46c.4.15.76.25,1.1.3.34.05.65.08.94.08.22,0,.43-.02.63-.05.19-.03.36-.09.5-.16.14-.07.25-.16.33-.27.08-.11.12-.24.12-.39Z" style="fill:#2072b9;"/><path d="M23.76,44.92h1.9v1.96h-1.9v-1.96ZM23.81,48.58h1.81v7.4h-1.81v-7.4Z" style="fill:#2072b9;"/><path d="M32.46,56.17c0-.1,0-.23,0-.38,0-.15,0-.28.02-.38h-.02c-.11.09-.24.18-.39.27-.15.09-.3.17-.48.24-.17.07-.36.13-.57.18-.21.04-.42.06-.64.06-.39,0-.78-.07-1.15-.21s-.71-.36-1-.66c-.29-.3-.52-.69-.7-1.17-.18-.47-.27-1.04-.27-1.71s.09-1.25.27-1.75c.18-.5.42-.92.72-1.26.3-.34.65-.59,1.04-.76.39-.17.79-.26,1.2-.26.45,0,.86.1,1.21.29.35.19.64.43.86.73h.03l.08-.83h1.59v7.54c0,.43-.04.8-.11,1.12-.07.31-.18.59-.31.83-.16.28-.37.52-.62.73-.25.21-.54.38-.86.52-.32.14-.68.24-1.07.31-.39.07-.8.1-1.23.1-.24,0-.48,0-.72-.03-.23-.02-.45-.04-.66-.08-.21-.03-.39-.07-.57-.11-.17-.04-.31-.09-.43-.13v-1.47c.34.11.69.2,1.06.26.37.06.76.09,1.17.09.81,0,1.44-.16,1.88-.47s.66-.79.66-1.42v-.18ZM30.84,54.73c.18,0,.36-.02.52-.07.16-.05.31-.1.45-.18.14-.07.26-.15.37-.24.11-.09.2-.17.28-.26v-3.31c-.19-.23-.43-.42-.72-.57-.29-.15-.59-.23-.91-.24-.11,0-.23.01-.36.04-.12.03-.25.08-.38.15-.13.07-.25.17-.36.29-.11.12-.22.27-.3.45-.09.18-.16.4-.21.66-.05.25-.08.55-.08.89,0,.37.04.7.11,1,.07.29.18.54.32.75.14.21.32.36.53.47.21.11.46.16.74.16Z" style="fill:#2072b9;"/><path d="M37.92,49.61h.03c.11-.15.24-.3.4-.45.16-.15.35-.28.56-.39.21-.11.44-.2.69-.27.25-.07.52-.1.81-.1.27,0,.53.03.78.09.25.06.48.16.69.29.21.13.39.3.55.5s.29.45.38.74c.05.16.09.33.1.52.02.19.03.4.03.65v4.81h-1.81v-4.52c0-.2,0-.37-.02-.51-.02-.14-.04-.27-.08-.37-.09-.23-.23-.4-.42-.5-.19-.1-.41-.15-.68-.15-.35,0-.69.08-1.01.25-.32.17-.61.41-.86.72v5.1h-1.81v-7.4h1.5l.17,1.03Z" style="fill:#2072b9;"/><path d="M48.21,53.84c0-.16-.04-.29-.13-.39-.09-.1-.21-.19-.36-.26-.15-.07-.32-.13-.51-.18-.19-.05-.39-.1-.6-.15-.26-.07-.52-.15-.76-.25-.24-.09-.46-.22-.65-.37-.19-.15-.33-.34-.44-.58-.11-.23-.16-.52-.16-.85,0-.41.07-.77.22-1.07.15-.3.35-.55.6-.75.25-.2.55-.35.88-.44.33-.1.69-.15,1.06-.15.45,0,.88.04,1.28.11.4.07.76.17,1.08.29v1.47c-.17-.06-.35-.11-.53-.16-.19-.05-.37-.09-.57-.13-.19-.04-.38-.06-.57-.09-.19-.02-.37-.03-.53-.03-.21,0-.39.02-.54.06-.15.04-.27.1-.36.16-.09.07-.16.15-.2.24-.04.09-.06.18-.06.28,0,.17.04.31.13.41.09.11.21.19.37.26.16.07.32.12.5.16.17.04.34.09.5.13.25.06.51.13.76.22.25.09.48.21.69.36.2.16.37.36.5.6.13.25.19.56.19.94,0,.42-.08.78-.24,1.09-.16.31-.38.57-.66.78-.28.21-.62.36-1.02.46-.39.1-.83.15-1.3.15s-.89-.04-1.26-.11c-.37-.07-.68-.17-.93-.28v-1.46c.4.15.76.25,1.1.3.34.05.65.08.94.08.22,0,.43-.02.63-.05.19-.03.36-.09.5-.16.14-.07.25-.16.33-.27.08-.11.12-.24.12-.39Z" style="fill:#2072b9;"/></svg>