<svg xmlns="http://www.w3.org/2000/svg" viewBox="0 0 32 32">
  <defs>
    <linearGradient id="flaskGradient" x1="0" x2="0" y1="0" y2="1">
      <stop offset="0%" stop-color="#0a8bdf"/>
      <stop offset="100%" stop-color="#0573bb"/>
    </linearGradient>
  </defs>
  <rect width="32" height="32" rx="6" fill="#0a8bdf"/>
  <path d="M12 4h8v2h-1v6.2l4.3 8.6A2 2 0 0 1 21.5 23H10.5a2 2 0 0 1-1.8-2.9L13 12.2V6H12V4Z" fill="#e5e7eb"/>
  <path d="M11.5 19h9l1.3 2.6A1 1 0 0 1 20.9 23H11.1a1 1 0 0 1-.9-1.4L11.5 19Z" fill="url(#flaskGradient)"/>
  <circle cx="14" cy="10" r="1" fill="#0ea5e9"/>
  <circle cx="18" cy="12" r="1" fill="#38bdf8"/>
</svg>
